<svg width="20" height="20" viewBox="0 0 20 20" fill="none" xmlns="http://www.w3.org/2000/svg">
<path d="M19 3H15" stroke="#FF780A" stroke-width="2" stroke-miterlimit="10" stroke-linecap="round" stroke-linejoin="round"/>
<path d="M17 5V1" stroke="#FF780A" stroke-width="2" stroke-miterlimit="10" stroke-linecap="round" stroke-linejoin="round"/>
<path d="M0 19V8C0 7.4 0.4 7 1 7H5C5.6 7 6 7.4 6 8V19C6 19.6 5.6 20 5 20H1C0.4 20 0 19.6 0 19Z" fill="#FF780A" fill-opacity="0.78"/>
<path d="M6 19V1C6 0.4 6.4 0 7 0H11C11.6 0 12 0.4 12 1V19C12 19.6 11.6 20 11 20H7C6.4 20 6 19.6 6 19Z" fill="#FF780A"/>
<path d="M12 19V10C12 9.4 12.4 9 13 9H17C17.6 9 18 9.4 18 10V19C18 19.6 17.6 20 17 20H13C12.4 20 12 19.6 12 19Z" fill="#FF7800" fill-opacity="0.55"/>
</svg>
